<svg fill="none" xmlns="http://www.w3.org/2000/svg" viewBox="3.48 4.52 74.77 74.55">
<path d="M36.5129 43.2073C37.6045 44.2277 39.0172 44.9268 40.6147 45.1291L54.2803 46.8593L53.4413 53.4855L62.9428 47.9561L66.6799 48.4293C70.7084 48.9394 74.3864 46.0971 74.895 42.0809L78.1851 16.0952C78.6938 12.079 75.8403 8.40971 71.8116 7.89962L45.7463 4.59935C41.7177 4.08928 38.0397 6.93153 37.5312 10.9478L33.495 42.8251L36.5129 43.2073Z" fill="#F7F3F1"/>
<path d="M71.8115 7.89957L65.5636 7.10849C69.5923 7.61859 72.4459 11.288 71.9374 15.3041L68.6472 41.2898C68.1387 45.306 64.4607 48.1483 60.4321 47.6382L56.695 47.165L54.0463 48.7064L53.4412 53.4855L62.9427 47.9561L66.6798 48.4293C70.7084 48.9393 74.3864 46.0971 74.8949 42.0808L78.1851 16.0952C78.6937 12.0791 75.84 8.40964 71.8115 7.89957Z" fill="#EFE7E3"/>
<path d="M49.3759 35.4084L50.0507 36.1122C51.1205 37.228 52.541 37.9428 54.0746 38.137L64.7477 39.4884C65.7594 39.6165 66.681 38.8756 66.7623 37.8471C66.8385 36.8838 67.9898 28.1693 68.1142 27.1862C68.2387 26.203 67.5426 25.3049 66.5593 25.1804L59.3246 24.2422L60.4765 22.2557C61.067 21.2374 61.4146 20.0966 61.4924 18.922C61.5702 17.7474 61.376 16.5707 60.9249 15.4834C60.4128 14.4186 58.8208 14.5849 58.6375 15.7909C58.3992 17.6729 57.482 19.4031 56.0582 20.6566L50.782 25.2944L49.0996 25.0813L47.817 35.2109L49.3759 35.4084Z" fill="#FFD36C"/>
<path d="M48.4522 36.9231L43.5793 36.3061C43.4246 36.2865 43.2841 36.2063 43.1885 36.0831C43.093 35.9598 43.0503 35.8037 43.0699 35.649L44.6427 23.2269C44.6623 23.0723 44.7426 22.9317 44.8658 22.8361C44.989 22.7406 45.1452 22.6979 45.2999 22.7175L50.1728 23.3345C50.2494 23.3442 50.3233 23.3689 50.3904 23.4072C50.4574 23.4454 50.5163 23.4966 50.5636 23.5576C50.6109 23.6186 50.6457 23.6883 50.6661 23.7628C50.6864 23.8373 50.6919 23.915 50.6822 23.9916L49.1094 36.4137C49.0897 36.5683 49.0095 36.7089 48.8862 36.8044C48.763 36.8999 48.6069 36.9426 48.4522 36.9231Z" fill="#8EE6F3"/>
<path d="M34.8743 56.2312L38.195 30.0047C38.596 26.8375 36.3458 23.9439 33.1688 23.5417L12.6142 20.9391C9.43731 20.5369 6.53676 22.7783 6.13575 25.9455L3.54117 46.4373C3.14016 49.6045 5.39039 52.4981 8.56739 52.9003L19.8593 54.33L19.1915 59.6043L26.6904 55.195L34.8743 56.2312Z" fill="#72D1FB"/>
<path d="M33.169 23.5417L25.0235 22.5104C28.2003 22.9126 30.4507 25.8062 30.0497 28.9734L26.729 55.1999L34.8746 56.2312L38.1953 30.0047C38.5961 26.8376 36.3459 23.944 33.169 23.5417Z" fill="#62A6FD"/>
<path d="M28.1926 40.8604L24.0586 40.337L24.8583 37.6553L28.5394 38.1213C29.9878 38.3047 30.2722 36.0591 28.8237 35.8757L25.5139 35.4566L26.6057 31.7953C27.0229 30.3964 24.8539 29.7494 24.4365 31.1486L23.2379 35.1684L20.5292 34.8255L21.621 31.1641C22.0381 29.7652 19.8695 29.1181 19.4518 30.5174L18.2531 34.5373L13.7479 33.9669C12.2995 33.7835 12.0151 36.0291 13.4636 36.2125L17.5975 36.7359L16.7978 39.4177L13.1168 38.9516C11.6683 38.7682 11.384 41.0139 12.8324 41.1973L16.1422 41.6163L15.0504 45.2777C14.6376 46.6618 16.8017 47.3255 17.2196 45.9244L18.4183 41.9045L21.127 42.2475L20.0352 45.9088C19.6223 47.2929 21.7865 47.9566 22.2044 46.5555L23.403 42.5357L27.9083 43.1061C29.3567 43.2895 29.641 41.0438 28.1926 40.8604ZM21.7826 40.0488L19.074 39.7059L19.8737 37.0241L22.5824 37.3671L21.7826 40.0488Z" fill="#F7F3F1"/>
<path d="M46.5323 53.4499L31.9457 51.603C29.6912 51.3176 27.6329 52.9082 27.3483 55.1558L25.5071 69.6977C25.2225 71.9453 26.8194 73.9987 29.0739 74.2841L37.0872 75.2987L36.6132 79.0418L41.9349 75.9127L43.6605 76.1312C45.915 76.4166 47.9733 74.8261 48.2579 72.5785L50.0991 58.0365C50.3837 55.7889 48.7868 53.7354 46.5323 53.4499Z" fill="#FA9084"/>
<path d="M46.5319 53.45L40.244 52.6538C42.4985 52.9393 44.0955 54.9927 43.8109 57.2403L41.9697 71.7824C41.6851 74.03 39.6267 75.6205 37.3722 75.3351L37.0867 75.2989L36.6128 79.0418L41.9345 75.9127L43.6601 76.1312C45.9145 76.4167 47.9729 74.8261 48.2575 72.5785L50.0987 58.0364C50.3833 55.7889 48.7863 53.7354 46.5319 53.45Z" fill="#FF6CB5"/>
<path d="M37.1771 68.8081C40.9228 67.3918 42.9418 66.0387 43.2524 63.5859C43.6808 60.2026 39.6433 58.8319 38.1379 61.2196C37.1166 58.4262 33.0235 58.8534 32.5951 62.2365C32.2846 64.6894 33.9026 66.5028 37.1771 68.8081Z" fill="#F7F3F1"/>
</svg>